<svg xmlns="http://www.w3.org/2000/svg" viewBox="0 0 1440 320"><path fill="#fdebda" fill-opacity="1" d="M0,128L14.1,133.3C28.2,139,56,149,85,138.7C112.9,128,141,96,169,112C197.6,128,226,192,254,192C282.4,192,311,128,339,128C367.1,128,395,192,424,218.7C451.8,245,480,235,508,213.3C536.5,192,565,160,593,149.3C621.2,139,649,149,678,176C705.9,203,734,245,762,240C790.6,235,819,181,847,165.3C875.3,149,904,171,932,197.3C960,224,988,256,1016,229.3C1044.7,203,1073,117,1101,96C1129.4,75,1158,117,1186,133.3C1214.1,149,1242,139,1271,160C1298.8,181,1327,235,1355,234.7C1383.5,235,1412,181,1426,154.7L1440,128L1440,320L1425.9,320C1411.8,320,1384,320,1355,320C1327.1,320,1299,320,1271,320C1242.4,320,1214,320,1186,320C1157.6,320,1129,320,1101,320C1072.9,320,1045,320,1016,320C988.2,320,960,320,932,320C903.5,320,875,320,847,320C818.8,320,791,320,762,320C734.1,320,706,320,678,320C649.4,320,621,320,593,320C564.7,320,536,320,508,320C480,320,452,320,424,320C395.3,320,367,320,339,320C310.6,320,282,320,254,320C225.9,320,198,320,169,320C141.2,320,113,320,85,320C56.5,320,28,320,14,320L0,320Z"></path></svg>